# xmcd
#
# Track frame offsets:
#	150
#	21263
#	40378
#	67040
#	100286
#	113598
#	133932
#	157969
#	178444
#	199434
#	236971
#
# Disc length: 3379 seconds
# Revision: 1
# Processed by: cddbd v1.5.2PL0 Copyright (c) Steve Scherf et al.
# Submitted via: dBpowerAMP V12.0
#
DISCID=a70d310b
DTITLE=Stumble, The - The Other Side
DYEAR=2016
DGENRE=Blues
TTITLE0=New Orleans
TTITLE1=Just Stop
TTITLE2=Be My Slave
TTITLE3=Freedom Like a Woman
TTITLE4=Only You
TTITLE5=I Love You Too Much
TTITLE6=Under Your Command
TTITLE7=Heat of the Night
TTITLE8=Bullet for the Blind
TTITLE9=Evening
TTITLE10=One True Rock
EXTD=
EXTT0=
EXTT1=
EXTT2=
EXTT3=
EXTT4=
EXTT5=
EXTT6=
EXTT7=
EXTT8=
EXTT9=
EXTT10=
PLAYORDER=
